<svg xmlns="http://www.w3.org/2000/svg" width="372" height="348" viewBox="0 0 372 348">
    <g fill="none" fill-rule="evenodd">
        <path fill="#C9DCED" stroke="#2B3D51" d="M217.609 164l18.309 50.409-39.276 105.631h-20.379l5.84-81.416 15.851-29.114L187.11 164"/>
        <path fill="#B5C8CF" stroke="#2B3D51" stroke-linejoin="round" d="M205.74 295.617l11.05 24.423h20.251l-1.123-105.631z"/>
        <path fill="#F8E71C" stroke="#2B3D51" d="M.5 131.5v88h18v-56h12v35h18v-35l155.27.002.104.36C214.384 200.098 247.702 225.5 286 225.5c47.22 0 85.5-38.28 85.5-85.5S333.22 54.5 286 54.5c-43.89 0-80.532 33.228-85.037 76.551l-.047.448L.5 131.5z"/>
        <path fill="#79A2C9" stroke="#2B3D51" d="M111.924 164.012l11.177 49.26 3.453 106.768h-20.677l-27.478-53.41 9.235-95.24L98.35 159.79z"/>
        <path fill="#8FB4D8" stroke="#2B3D51" d="M100.081 164.012l2.552 67.27-33.919 88.758H48.695l6.917-76.137 11.537-26.779-14.397-53.112"/>
        <path fill="#EAF7FF" stroke="#2B3D51" d="M107.888 131.17L87.285 85.494 76.363 51.49l-12.118-.396L33.165 73.5l-11.793 68.913 42.873 14.031 8.084-14.031-19.045-20.42 5.722-26.737-5.722 26.737 8.617 9.177"/>
        <path fill="#C9DCED" stroke="#2B3D51" d="M75.368 43.39l.995 8.099c-1.247 1.464-3.307 1.994-6.179 1.59-2.872-.404-4.852-1.066-5.94-1.986l3.06-10.356 8.064 2.652z"/>
        <path fill="#C9DCED" stroke="#2B3D51" d="M88.88 23.17c.764 2.973 1.97 5.405 3.618 7.295-.682 1.505-1.721 2.258-3.118 2.258-1.433 4.584-4.011 7.78-7.734 9.588-3.723 1.807-8.108 1.343-13.155-1.393l-6.59-4.669 1.113-3.526 11.094-6.196 10.485-5.828 4.287 2.472z"/>
        <path fill="#2B3D51" stroke="#2B3D51" stroke-width=".5" d="M88.002 17.478c.898-4.706 2.323-7.059 4.278-7.059 2.931 0 3.757 4.215 3.55 6.049-.206 1.833-2.382 5.578-7.403 6.703-5.02 1.125-5.329-1-8.177.43-2.849 1.43-1.713 4.801-4.831 6.559-3.119 1.757-7.133.623-9.214 1.027-2.08.404-3.78 3.49-.707 4.984 3.073 1.492 3.38 1.78 3.38 3.194s-2.24 2.466-3.884 2.466c-1.643 0-6.366-1.29-8.732-5.66l31.74-18.693z"/>
        <path fill="#3F5165" stroke="#3F5165" d="M78.352 1l-27.6 16.278-1.33 5.622 5.9 10.747-15.906 9.479v2.216l47.87-28.064z"/>
        <path fill="#EAF7FF" stroke="#2B3D51" stroke-linejoin="round" d="M120.886 121.993l-12.998 9.177-17.02-37.812z"/>
        <path fill="#C9DCED" stroke="#2B3D51" stroke-linejoin="round" d="M120.886 121.993l22.893 21.184 7.373 18.111-5.877 9.29-11.847 3.384 4.445-12.674-2.445 1.07-4.008 6.144-1.349-4.899 5.357-14.769-27.54-17.664z"/>
        <path fill="#C9DCED" stroke="#2B3D51" d="M72.33 142.413l18.537 16.17 18.73-9.415v3.283l-6.344 6.131 15.93 6.518-3.157 6.676-10.15 5.394-19.3-14.151-22.331-6.575z"/>
        <path fill="#2B3D51" stroke="#2B3D51" stroke-linejoin="round" d="M105.877 320.04l-8.911 26.202h65.807l-5.984-6.356-15.608-7.8-14.627-12.046z"/>
        <path fill="#3F5165" stroke="#3F5165" stroke-linejoin="round" d="M48.695 320.04l-9.102 26.883h65.152L98.748 340l-14.974-7.914-15.06-12.045z"/>
        <path stroke="#2B3D51" stroke-linecap="round" d="M39.5 347.5h319"/>
        <g fill="#FFF" stroke="#2B3D51" transform="translate(231 85)">
            <circle cx="55" cy="55" r="54.5"/>
        </g>
        <path fill="#8FB4D8" stroke="#2B3D51" d="M222.046 60.11h3.603l11.392 8.865c-3.596 2.754-6.915 5.59-9.956 8.508l-5.039-9.718 5.04 9.718c-14.635 14.9-23.104 30.814-25.407 47.74l-15.943-7.813 8.748-30.873-8.748 30.873L213.454 131l-3.531 10.006-50.46-12.885 14.453-58.671 24.5-8.896 7.953 4.765 8.07-.947 1.167-3.818 6.44-.444z"/>
        <path fill="#8FB4D8" stroke="#2B3D51" stroke-linejoin="round" d="M273.228 73.5l9.369 23.014-12.16 20.896-24.274-14.998c4.9-5.066 10.193-8.942 15.878-11.63l1.998 1.296.46 4.864-1.713-21.912 10.442-1.53z"/>
        <path fill="#EAF7FF" stroke="#2B3D51" d="M220.815 50.578c-.435 3.777-.025 6.955 1.231 9.532-1.385 1.826-3.314 2.739-5.79 2.739l-1.817-3.296.668-8.383 3.135-1.87 2.573 1.278z"/>
        <path fill="#EAF7FF" stroke="#2B3D51" d="M229.27 32.176c.323 2.96 1.389 5.87 3.196 8.73-.847 1.361-1.912 2.042-3.195 2.042-.828 2.59-2.06 4.52-3.696 5.79-1.636 1.27-4.496 2.08-8.58 2.432l-7.072-8.68 5.75-11.593 8.567-5.474 4.056 2.14.975 2.137v2.476z"/>
        <path fill="#2B3D51" stroke="#2B3D51" stroke-width=".5" d="M229.369 30.983c-.208-1.414-1.45-2.706-3.725-3.878-3.23 3.795-5.343 6.056-6.34 6.782-1.493 1.089-6.279 4.16-6.279 7.42 0 3.258 4.742 9.432 4.742 14.332s-2.27 8.263-3.506 9.226c-1.236.962-15.724 5.075-31.054-.599-.496.13-.001-1.487 1.484-4.851 2.227-5.046 11.362-6.194 11.362-13.817s-4.308-10.909 2.613-20.308c6.922-9.4 21.762-5.151 22.678-4.461.917.69 7.33 4.946 8.025 6.276.463.887.463 2.18 0 3.878z"/>
        <path fill="#EAF7FF" stroke="#2B3D51" stroke-linejoin="round" d="M262.786 75.03l-1.19-7.038-6.44-8.294.864-2.225 10.691-3.76 3.26.653 2.172 4.24 1.907-4.24h2.278l-.989 6.209-5.367 4.97 3.256 7.955z"/>
        <path fill="#EAF7FF" stroke="#2B3D51" stroke-width=".5" d="M213.454 131l6.85 2.187 7.733-10.866 1.129 3.33-2.834 4.392v2.198l8.051.946 11.098-.946-1.932 6.341-4.89 5.167-7.476 1.945-21.26-4.688z"/>
        <path fill="#2B3D51" stroke="#3F5165" stroke-linejoin="round" d="M208 346.202L217.53 320h20.38l15.6 13.101 14.246 6.415 6.721 6.686z"/>
        <path fill="#3F5165" stroke="#3F5165" stroke-linejoin="round" d="M166.732 346.242l9.531-26.202h20.38l15.6 13.101 14.245 6.415 6.722 6.686z"/>
    </g>
</svg>
