<svg xmlns="http://www.w3.org/2000/svg" width="58" height="64" viewBox="0 0 58 64">
    <path fill="#00BFFF" fill-rule="nonzero" d="M2.123 1.162a4.012 4.012 0 0 1 4.917.02l35.963 20.43-.015.01 12.027 6.833c3.447 1.945 3.447 5.145 0 7.114L43.02 42.387h.009L7.065 62.819a4.012 4.012 0 0 1-4.932.008l-.016.017-.172-.172a4.923 4.923 0 0 1-1.133-3.446V4.775A4.923 4.923 0 0 1 1.945 1.33l-.012.012-.013-.012c.048-.042.097-.083.147-.123l.05-.05zm1.94 2.136l26.092 28.704L3.948 60.827l28.667-26.365 9.49 7.24-7.03-9.7 7.03-9.706-9.49 7.242L4.063 3.298z"/>
</svg>
