<svg xmlns="http://www.w3.org/2000/svg" width="118" height="96" viewBox="0 0 118 96">
    <g fill="none" fill-rule="evenodd">
        <g transform="translate(49.667 25.786)">
            <circle cx="23.333" cy="23.214" r="23" fill="#FFF"/>
            <path fill="#A7CCF6" stroke="#1C202B" d="M23.333 9.791L11.71 16.502v13.423l11.624 6.711 11.625-6.711V16.502L23.333 9.791z"/>
            <path stroke="#1C202B" stroke-linecap="round" d="M33.684 17.38l-10.35 6-10.33-6M23.167 23.427v12"/>
        </g>
        <path fill="#BAD0D9" stroke="#1C202B" d="M75.25 3.547L72 14.569l-.35.022c-3.293.203-6.504.87-9.562 1.974l-.326.118-7.47-8.773a45.453 45.453 0 0 0-6.407 3.715l3.865 10.868-.263.223a34.69 34.69 0 0 0-6.463 7.28l-.193.292-11.17-2.699a45.234 45.234 0 0 0-2.968 6.853l9.553 6.546-.076.331a34.612 34.612 0 0 0-.822 9.409l.017.352-10.608 4.376c.358 2.529.926 5.01 1.697 7.424l11.607-.32.135.309a34.492 34.492 0 0 0 4.66 7.697l.22.275-6.01 9.78a45.755 45.755 0 0 0 5.867 5.123l9.201-7.081.29.17A34.297 34.297 0 0 0 64.31 82.2l.335.096.886 11.477c2.585.475 5.22.726 7.885.749l3.276-11.116.338-.031a34.315 34.315 0 0 0 8.138-1.766l.324-.113 7.494 8.8a45.45 45.45 0 0 0 6.895-3.98L96.01 75.433l.26-.223a34.7 34.7 0 0 0 5.636-6.165l.197-.275 11.277 2.724a45.27 45.27 0 0 0 3.293-7.179l-9.493-6.506.085-.337a34.56 34.56 0 0 0 1.041-8.44l-.006-.476 10.745-4.433a45.293 45.293 0 0 0-1.481-7.614l-11.474.317-.128-.328a34.432 34.432 0 0 0-4.391-7.956l-.2-.272 6.075-9.883a45.774 45.774 0 0 0-5.558-5.166L92.8 20.217l-.297-.192a34.336 34.336 0 0 0-8.633-4.01l-.326-.1-.891-11.531a45.624 45.624 0 0 0-7.404-.837zM73 28.5c11.322 0 20.5 9.178 20.5 20.5S84.322 69.5 73 69.5 52.5 60.322 52.5 49 61.678 28.5 73 28.5z"/>
        <g>
            <circle cx="22" cy="22" r="22" fill="#2B3D51"/>
            <g transform="translate(9 9)">
                <circle cx="13" cy="13" r="2" fill="#FFF"/>
                <circle cx="13.371" cy="13" r="9.533" stroke="#FFF" stroke-width="1.733"/>
                <path stroke="#FFF" stroke-linecap="round" stroke-width="1.733" d="M13 2.6V.371M13 25.629V23.4"/>
                <g stroke="#FFF" stroke-linecap="round" stroke-width="1.733">
                    <path d="M23.4 13h2.229M.371 13H2.6"/>
                </g>
            </g>
        </g>
    </g>
</svg>
