<svg xmlns="http://www.w3.org/2000/svg" width="308" height="239" viewBox="0 0 308 239">
    <g fill="none" fill-rule="evenodd" transform="translate(1 -.333)">
        <circle cx="70.45" cy="65.769" r="4.725" fill="#A1C3FC"/>
        <g transform="translate(58.125 44.15)">
            <rect width="17.55" height="5.4" x="20.33" y="13.526" stroke="#A1C3FC" stroke-width="1.35" rx="2.7" transform="rotate(-8 29.105 16.226)"/>
            <circle cx="8.274" cy="8.794" r="8.1" fill="#A1C3FC"/>
            <circle cx="125.049" cy="69.994" r="10.125" stroke="#F8E71C" stroke-width="1.35"/>
            <circle cx="222.174" cy="58.144" r="24.975" stroke="#A1C3FC" stroke-width="2.7"/>
            <path fill="#A1C3FC" d="M40.85 145.17l39.323 2.513-21.227 27.674zM74.084 19.225L95.024 5l13.804 21.079L87.97 40.354z"/>
        </g>
        <path fill="#F8E71C" stroke="#2B3D51" d="M27.382 62.877l13.324-13.01 26.625 45.937 3.38 2.429 1.389-.698v-2.26l-9.693-18.581V65.247l22.916 5.69-4.745 4.478 10.913 26.639-27.471 7.459-26.965-50.297-9.673 6.03z"/>
        <path fill="#3F5165" d="M147.787 156.118l-8.765 2.55h-13.527l-11.875 10.195 8.458 13.357 30.199-24.365z"/>
        <path fill="#C9DCED" stroke="#2B3D51" stroke-width=".75" d="M54.516 112.29l43.01-11.253 27.969 57.632-11.875 10.194-20.285-20.47-7.482-19.117-41.79 17.015-10.107-3.303 6.876-16.852z"/>
        <path fill="#2B3D51" stroke="#2B3D51" stroke-linejoin="round" stroke-width=".675" d="M52.212 215.301l-2.199 17.282h38.935l-1.235-3.46-6.414-4.495-11.779-9.327z"/>
        <path fill="#B5C8CF" stroke="#2B3D51" stroke-linejoin="round" stroke-width=".75" d="M52.212 215.301l3.229-31.41 11.667-20.558-23.045-17.042 29.431-11.97 21.18 23.516-25.154 57.464z"/>
        <path fill="#8FB4D8" stroke="#2B3D51" stroke-linejoin="round" stroke-width=".75" d="M60.25 102.729l4.746-5.648v-8.889l-4.072-4.896-2.69 9.716 1.34-9.716-2.457-1.844-1.735 11.56-3.262-4.82h-2.47l2.47 7.9.776 5.962-27.354 21.68-5.627-30.722 5.627 30.722 23.703-19.056.405-3.641H34.393l4.04 12.154L25.835 75.81c-1.19.551-2.535.551-4.033 0a16.097 16.097 0 0 1-4.174-2.284l-14.712 32.53 5.995 37.575 16.924 4.762 9.996-7.39 24.417-38.274z"/>
        <path fill="#8FB4D8" stroke="#2B3D51" stroke-linejoin="round" stroke-width=".5" d="M49.65 101.037h3.038l.208 1.017-3.651 2.624z"/>
        <path fill="#EAF7FF" stroke="#2B3D51" stroke-linejoin="round" stroke-width=".75" d="M60.25 102.729l4.746-5.648v-8.889l-4.072-4.896-2.69 9.716 1.34-9.716-2.457-1.844-1.735 11.56-3.262-4.82h-2.47l2.47 7.9.776 5.962-13.467 10.673 7.125 11.452z"/>
        <path fill="#EAF7FF" stroke="#2B3D51" stroke-width=".75" d="M17.77 73.472c1.486 1.252 2.952 2.031 4.398 2.338 1.447.306 2.67.306 3.668 0l-2.181-6.816-5.79 1.924-.095 2.554z"/>
        <path fill="#EAF7FF" stroke="#2B3D51" stroke-width=".75" d="M24.184 55.991l4.109 4.391c.332.606.148 1.067-.553 1.384-1.051.476-.72 1.282-.72 2.544 0 1.263-1.788 7-9.155 6.608h-6.038l-.45-4.34 7.422-9.051 5.385-1.536z"/>
        <path fill="#2B3D51" d="M24.586 51.357c1.274.856 1.274 3.451 0 5.078-1.273 1.626-5.233 2.334-6.72 4.626-1.489 2.292-.208 3.573-1.409 4.81-1.201 1.237-4.547.315-3.904 2.775.642 2.46 4.5-.177 5.615 2.019-1.519 1.594-3.39 2.391-5.615 2.391-3.338 0-6.601-2.615-6.601-3.512l12.884-18.187c2.342-1.173 4.259-1.173 5.75 0z"/>
        <path fill="#3F5165" stroke="#3F5165" d="M0 64.158L11.87 47.55l5.659 3.755 5.162-7.304.964.773L2.417 74.43l-.993-.816 3.74-5.054z"/>
        <g>
            <path fill="#C9DCED" stroke="#2B3D51" stroke-width=".75" d="M175.495 92.256l-13.38-3.156-4.83 2.425 6.293.73-7.14.436 1.233 1.964 12.558 1.275-4.4 6.17v2.858l9.666-7.061 25.28-8.797L196 80.886l-2.368-.422z"/>
            <path fill="#EAF7FF" stroke="#2B3D51" stroke-linejoin="round" stroke-width=".75" d="M246.268 42.723l-9.26 17.126-8.144 3.342-7.885.836L200.775 87.1l5.392 19.234 22.022-2.572 12.41-23.42 18.019-27.613-.387-9.417z"/>
            <path fill="#79A2C9" stroke="#2B3D51" stroke-width=".75" d="M286.874 148.767l-50.072 11.528-17.256-1.845 2.903-36.452 4.894-2.997 9.46 22.401 16.407-5.977h30.696z"/>
            <path fill="#8FB4D8" stroke="#2B3D51" stroke-linejoin="round" stroke-width=".75" d="M229.697 173.446l5.503 36.996-12.118 6.385-19.19-58.377 3.505-46.115-1.23-6 22.022-2.572 3.74 11.381-8.847 38.361z"/>
            <path fill="#C9DCED" stroke="#2B3D51" stroke-linejoin="round" stroke-width=".75" d="M246.268 42.723l3.39-18.296-6.295-13.215h2.905l2.098 3.062L251.009.938l1.326 1.528v6.922l3.01-6.922 5.123 6.922-4.191 11.07 1.954 22.855z"/>
            <path fill="#C9DCED" stroke="#2B3D51" stroke-width=".75" d="M228.74 63.102l-4.729 5.102h-1.505l-.604-2.551-.923-2.551 3.637-3.253 3.62 1.11-.329 1.221z"/>
            <path fill="#C9DCED" stroke="#2B3D51" stroke-linejoin="round" stroke-width=".75" d="M228.692 49.383c1.738 2.497 3.257 4.014 4.557 4.553-.133 1.221-.626 1.832-1.479 1.832.167 2.424-.482 4.23-1.947 5.417-1.464 1.187-3.803 1.616-7.018 1.287l-4.254-.881-2.11-3.293 2.626-3.828 9.625-5.087z"/>
            <path fill="#2B3D51" stroke="#2B3D51" stroke-linejoin="round" stroke-width=".5" d="M228.531 48.906c-1.576-1.888-3.704-2.832-6.383-2.832-4.018 0-10.228 4.421-9.77 9.866.305 3.63 2.86 6.278 7.667 7.946-2.163 1.15-4.72 1.597-7.668 1.34-4.422-.383-12.585-3.041-18.173-2.648-3.725.263-7.192 1.904-10.401 4.924 1.127 4.177 2.459 7.464 3.994 9.862 2.303 3.596 8.896 8.26 10.192 9.757.864.999 1.146 1.658.846 1.98 6.528-2.788 11.32-5.984 14.375-9.589 4.582-5.407 9.372-15.427 9.372-16.934 0-1.507-1.983-1.93-3.043-1.93s-2.555-1.12-1.939-2.914c.616-1.794 1.871-1.077 3.33-1.436 1.457-.358 5.556-2.46 7.601-7.392z"/>
            <path fill="#3F5165" stroke="#3F5165" stroke-linejoin="round" stroke-width=".675" d="M214.225 238.01l28.788-17.246-7.813-10.322-12.118 6.385-8.857 17.393z"/>
            <path fill="#2B3D51" stroke="#2B3D51" stroke-width=".675" d="M296.373 130.266l10.092 31.663h-3.603l-4.404-4.85-11.584-8.312-2.968-13.342z"/>
        </g>
    </g>
</svg>
