<svg width="1046" height="164" viewBox="0 0 1046 164" xmlns="http://www.w3.org/2000/svg">
    <g fill-rule="nonzero" fill="none">
        <path fill="#61BBED" d="m127.88 2.314-70.228 68.92 73.246 87.635v1.207H92.263l-62.38-77.674v77.674H0V1.106h29.782v67.311l59.865-67.31h38.233zM306.267 1.107v91.256c0 47.087-28.876 71.235-68.92 71.235-38.233 0-70.832-23.242-70.832-71.235V1.107h29.681v91.256c0 28.675 16.4 43.968 41.252 43.968 24.851 0 39.038-16.6 39.038-43.968V1.107h29.781zM438.675 161.686h-31.291L340.879 1.106h33.806l48.194 124.46 48.395-124.46h33.806z"/>
        <path fill="#FAFAFA" d="M947.578 1.107h31.29l66.506 160.579h-33.806l-48.194-124.56-48.395 124.46h-33.806zM660.025 160.177H541.099V1.107h118.926v29.781H570.78v37.127h86.226v28.272H570.78v35.718h89.245v28.172zM789.313 105.644c30.788-6.238 41.05-28.675 41.05-50.91 0-28.071-20.123-53.527-58.456-53.728-18.413 0-36.925-.1-55.338-.201v28.474h55.539c19.318 0 27.87 12.979 27.87 26.058 0 12.98-8.351 26.06-27.87 26.06H731.36l23.442 27.567 47.289 54.231h36.422v-2.113l-49.2-55.438z"/>
        <path fill="#61BBED" d="m29.178 68.719 60.57-67.31 37.327.905-97.897 105.544z"/>
    </g>
</svg>
