<svg xmlns="http://www.w3.org/2000/svg" xmlns:xlink="http://www.w3.org/1999/xlink" width="405" height="291" viewBox="0 0 405 291">
    <defs>
        <path id="a" d="M0 0h410v300H0z"/>
    </defs>
    <g fill="none" fill-rule="evenodd" transform="translate(-1 -7)">
        <mask id="b" fill="#fff">
            <use xlink:href="#a"/>
        </mask>
        <g mask="url(#b)">
            <g transform="translate(289 7)">
                <path fill="#3F5165" d="M68 131.888h29a6 6 0 0 1 6 6v1H62v-1a6 6 0 0 1 6-6zM84 117.888h6v14h-6zM99.071 60.882l5.768 1.654-14.885 51.908-5.767-1.654z"/>
                <path fill="#3F5165" d="M104.128 59.748l-3.857 4.596L32.86 7.78 35 1.888z"/>
                <circle cx="87" cy="114.888" r="3.75" fill="#2B3D51" stroke="#3F5165" stroke-width=".5"/>
                <circle cx="102" cy="60.888" r="3.75" fill="#2B3D51" stroke="#3F5165" stroke-width=".5"/>
                <path fill="#F8E71C" stroke="#979797" stroke-width=".5" d="M34.748 1.138H.252c.133 9.412 7.805 17 17.248 17 9.443 0 17.115-7.588 17.248-17z"/>
            </g>
            <path fill="#B5C8CF" stroke="#2B3D51" d="M166.5 52.5v69h139v-69h-139z"/>
            <text fill="#2B3D51" font-family="Rubik-Regular, Rubik" font-size="38" transform="translate(166 52)">
                <tspan x="54" y="50">%</tspan>
            </text>
            <path fill="#3F5165" stroke="#3F5165" stroke-width=".5" d="M225.25 122.25h22.5v19.5h-22.5zM264.75 145.75h-55.5v-3.5h55.5z"/>
            <g stroke-width=".5">
                <path fill="#2B3D51" stroke="#2B3D51" d="M1.25 161.75h404.5v-15.5H1.25z"/>
                <path fill="#3F5165" stroke="#3F5165" d="M27.208 167.25L4.3 292.75h5.492L32.7 167.25h-5.492zM372.792 167.25l22.908 125.5h-5.492L367.3 167.25h5.492zM4.25 162.25h391.5v4.5H4.25z"/>
            </g>
        </g>
        <g stroke="#2B3D51" mask="url(#b)">
            <path fill="#EAF7FF" d="M132.122 97.598l3.864 4.293 3.357 4.48 12.102 34.015 32.854-15.673 2.106 9.197-36.198 28.354-21.848-4.69-15.63-29.402 6.739-20.174 6.595-11.252z"/>
            <path fill="#C9DCED" d="M138.182 92.326c-1.464 4.805-2.196 7.993-2.196 9.565-3.6-2.95-6.907-4.665-9.923-5.145l3.006-6.793 6.517.934 2.596 1.439z"/>
            <path fill="#C9DCED" d="M147.061 73c1.468 4.936 2.76 7.862 3.877 8.778-1.035 1.454-2.098 2.355-3.188 2.7-1.818 5.232-5.307 7.848-10.468 7.848-3.236 0-5.973-.791-8.213-2.373l-4.588-7.29.787-5.776 11.717-5.579 7.51-.999 2.566 2.69z"/>
            <path fill="#2B3D51" stroke-width=".5" d="M139.672 64.531c4.29-4.992 7.646-7.488 10.068-7.488 3.633 0 5.437 2.427 5.437 3.744 0 1.317-.27 10.966-12.696 13.26-2.411.134-3.966-.123-4.667-.769-.861 3.684-2.629 5.526-5.303 5.526-1.011 0-1.45-.808-3.224-.808-1.774 0-3.218 1.411-2.962 2.777.256 1.365 1.972 2.627 2.962 3.098.99.472 1.117 1.84 1.117 2.75 0 .605-.445 1.716-1.335 3.332-9.11-3.229-13.666-8.53-13.666-15.906 0-11.062 11.846-12.358 15.867-12.358 2.68 0 5.481.948 8.402 2.842z"/>
            <path fill="#8FB4D8" d="M156.48 157.433l51.66 20.22 5.418 11.833-11.417 84.908h-17.386l-10.407-46.862 7.825-30.098-32.442-7.948-5.159-28.568 5.635 1.346z"/>
            <path fill="#3F5165" stroke-width=".5" d="M176.743 296.952l8.012-22.558h17.386l13.359 11.28 10.773 4.011 6.911 7.267z"/>
            <path fill="#2B3D51" stroke-width=".5" d="M163.323 274.394h17.996l2.275 2.599-6.85 19.959h-21.26z"/>
            <path fill="#79A2C9" d="M163.323 274.394h17.996l2.275-4.386-9.246-42.476 7.825-30.098-18.85-4.354 6.216 11.09-11.242 25.457z"/>
            <path fill="#F8E71C" stroke-linejoin="round" d="M199.918 105.917v9.591l-1.438 5.247-6.736 4.274-4.408-4.808-1.551-2.67v-11.634z"/>
            <path fill="#F8E71C" stroke-linejoin="round" d="M195.963 109.556v8.724l-2.425 3.137-2.294-1.758-.646-3.122v-6.981z"/>
            <path fill="#C9DCED" d="M184.3 124.713l3.49-5.495 2.684-3.198.77 3.64 2.294 1.757 2.425-3.137v-5.948l6.901 5.948-.544 7.43-4.725 4.552-8.513 2.017-2.677 1.63z"/>
            <path stroke-linecap="round" d="M56.5 297.5l251-1"/>
        </g>
        <g stroke="#2B3D51" mask="url(#b)">
            <g transform="translate(72 108)">
                <path fill="#2B3D51" stroke-width=".5" d="M18.208 96.75h62.491L64.423 9.039A10.75 10.75 0 0 0 53.853.25H13.23c-.658 0-1.314.06-1.961.18C5.43 1.514 1.576 7.124 2.659 12.961L18.208 96.75z"/>
                <path fill="#3F5165" stroke-width=".5" d="M48.25 97.25V98a4.75 4.75 0 0 0 4.75 4.75h24A4.75 4.75 0 0 0 81.75 98v-.75h-33.5zM61.25 103.25h7.5v14.5h-7.5z"/>
                <path fill="#3F5165" stroke-width=".5" d="M59.25 165.75V121a3.75 3.75 0 0 1 3.75-3.75h4a3.75 3.75 0 0 1 3.75 3.75v44.75h-11.5z"/>
                <path stroke-width="2" d="M45 175v-1a8 8 0 0 1 8-8h24a8 8 0 0 1 8 8v1"/>
                <path stroke-width="2" d="M27 175v-1c0-4.418 6.805-8 15.2-8h45.6c8.395 0 15.2 3.582 15.2 8v1"/>
                <circle cx="27" cy="182" r="6.75" fill="#2B3D51" stroke-width=".5"/>
                <circle cx="45" cy="182" r="6.75" fill="#2B3D51" stroke-width=".5"/>
                <circle cx="84" cy="182" r="6.75" fill="#2B3D51" stroke-width=".5"/>
                <path fill="#3F5165" stroke-width=".5" d="M80.7 96.665h15.267V93.26l-4.644-8.18-13.592-3.595z"/>
            </g>
        </g>
    </g>
</svg>
