<svg xmlns="http://www.w3.org/2000/svg" width="336" height="288" viewBox="0 0 336 288">
    <g fill="none" fill-rule="evenodd" transform="matrix(-1 0 0 1 336 0)">
        <path fill="#EAF7FF" fill-rule="nonzero" d="M26.528 0H335.37100000000004V188.274H26.528z"/>
        <path fill="#E1F1FC" fill-rule="nonzero" d="M60.649 33.089H91.35900000000001V63.799H60.649zM60.649 78.937H91.35900000000001V109.64699999999999H60.649zM42.554 259.253h59.834c7.932 0 14.361 6.429 14.361 14.36 0 7.931-6.43 14.36-14.36 14.36H42.553c-7.931 0-14.36-6.429-14.36-14.36 0-7.931 6.429-14.36 14.36-14.36z"/>
        <circle cx="296.186" cy="262.858" r="25.116" fill="#EAF7FF" fill-rule="nonzero"/>
        <path fill="#EAF7FF" fill-rule="nonzero" d="M0 239.1c9.632 18.813 32.692 26.257 51.506 16.625 16.714-8.557 24.752-27.975 18.975-45.841L0 239.099z"/>
        <g>
            <path fill="#2B3D51" d="M105.095 9.144L106.311 5.484 108.97 2.136 114.336 0 121.269 0 127.242 2.136 131.548 4.782 134.915 10.303 136.077 15.528 136.077 21.85 138.133 26.572 141.937 30.76 144.283 35.708 144.283 40.407 143.494 42.83 136.077 43.701 128.99 43.701 119.335 42.067 113.097 40.407 116.19 34.865 118.146 27.121 117.796 21.85 115.368 17.039 110.618 11.587 108.97 7.233 108.97 4.572 107.519 6.099z" transform="translate(118.641 28.289)"/>
            <path fill="#C9DCED" stroke="#2B3D51" stroke-linejoin="round" d="M99.795 15.777L102.808 12.745 104.992 9.337 107.519 6.099 108.97 4.782 108.97 7.233 110.618 11.587 115.368 17.039 117.796 21.85 118.146 27.121 117.796 29.296 113.192 29.296 107.761 28.499 105.354 27.121 103.843 25.37 102.493 22.165 102.061 18.256 100.564 17.039z" transform="translate(118.641 28.289)"/>
            <path fill="#C9DCED" stroke="#2B3D51" stroke-linejoin="round" d="M110.813 28.986L111.257 33.787 111.067 38.008 112.626 38.491 114.336 38.491 116.19 34.865 117.796 29.296 113.192 29.296z" transform="translate(118.641 28.289)"/>
            <path fill="#79A2C9" stroke="#2B3D51" stroke-linejoin="round" d="M93.135 83.179L102.486 76.316 107.326 69.936 107.326 79.045 109.247 93.315 101.498 96.087 94.555 96.087z" transform="translate(118.641 28.289)"/>
            <path fill="#8FB4D8" stroke="#2B3D51" stroke-linejoin="round" d="M147.685 68.303L157.962 87.479 155.234 97.962 139.851 100.898 132.459 100.898 135.188 80.21z" transform="translate(118.641 28.289)"/>
            <path fill="#8FB4D8" stroke="#2B3D51" stroke-linejoin="round" d="M111.745 114.624L132.071 100.898 140.869 90.747 147.685 79.045 147.685 68.303 141.937 55.147 131.907 43.701 122.225 39.958 115.368 38.491 112.626 38.491 111.067 38.008 110.169 50.194 107.96 66.567 105.719 77.846 100.018 91.567 106.378 97.039 116.955 82.07 119.784 76.316 121.15 69.24 119.483 61.257 121.15 69.24 119.784 76.316 116.955 82.07 111.745 89.209 105.373 98.943z" transform="translate(118.641 28.289)"/>
            <path fill="#C9DCED" stroke="#2B3D51" stroke-linejoin="round" d="M80.754 89.784L83.79 89.209 93.135 83.179 94.555 96.087 87.045 96.087z" transform="translate(118.641 28.289)"/>
            <g>
                <path fill="#2B3D51" d="M6.749 133.226L11.356 131.202 19.613 125.796 24.874 120.765 42.113 120.766 49.595 141.638 9.598 141.638z" transform="translate(118.641 28.289) translate(124.537 118.047)"/>
                <path fill="#BFD2D9" stroke="#3F5165" d="M14.359 0L17.4 18.605 21.73 33.828 38.293 71.987 44.718 100.631 42.113 120.766 24.874 120.765 7.37 74.757 0 60.383 7.069 6.977z" transform="translate(118.641 28.289) translate(124.537 118.047)"/>
            </g>
            <path fill="#2B3D51" fill-rule="nonzero" stroke="#2B3D51" stroke-width=".602" d="M133.295 172.933L125.181 175.943 17.528 64.266 25.644 61.257zM141.937 164.823L145.251 156.828 37.712 45.041 34.399 53.038z" transform="translate(118.641 28.289)"/>
            <path fill="#3F5165" fill-rule="nonzero" stroke="#2B3D51" stroke-width=".602" d="M25.644 61.257L133.295 172.933 141.937 164.823 34.399 53.038z" transform="translate(118.641 28.289)"/>
            <path fill="#F8E71C" fill-rule="nonzero" stroke="#2B3D51" d="M17.528 64.266L0 27.481 37.712 45.041 34.399 53.038 25.644 61.257 17.528 64.266" transform="translate(118.641 28.289)"/>
            <path fill="#C9DCED" stroke="#2B3D51" stroke-linejoin="round" d="M54.375 102.556L57.67 98.195 58.658 100.375 56.882 104.484 64.698 98.195 65.481 98.195 67.417 100.898 68.025 105.657 66.019 111.611 64.641 113.119 59.988 110.441 56.672 106.739z" transform="translate(118.641 28.289)"/>
            <path fill="#C9DCED" stroke="#2B3D51" d="M105.373 98.943L96.622 110.441 91.649 114.624 85.419 118.6 82.988 116.306 72.588 108.287 72.098 109.317 72.098 110.838 73.945 113.715 75.919 115.493 76.177 116.886 75.174 117.738 70.924 117.272 65.481 114.147 66.114 119.177 68.025 123.364 71.273 125.624 77.261 126.29 87.654 125.624 95.365 123.364 111.745 114.624z" transform="translate(118.641 28.289)"/>
            <path fill="#C9DCED" stroke="#2B3D51" d="M139.911 100.898L141.34 100.617 140.869 107.335 139.087 117.462 134.887 129.47 130.893 141.724 107.215 116.967 111.745 114.624 132.071 100.898zM100.018 149.284L98.618 159.08 110.508 238.811 126.992 238.811 132.872 218.226 132.159 186.778 129.388 174.24 125.181 175.943z" transform="translate(118.641 28.289)"/>
            <path fill="#3F5165" d="M110.508 238.811L99.585 247.453 93.053 250.593 84.739 255.847 81.329 259.686 134.135 259.686 126.654 238.813z" transform="translate(118.641 28.289)"/>
        </g>
    </g>
</svg>
