<svg xmlns="http://www.w3.org/2000/svg" width="397" height="237" viewBox="0 0 397 237">
    <g fill="none" fill-rule="evenodd">
        <path fill="#EAF7FF" stroke="#2B3D51" stroke-width=".75" d="M125.853 29.097l-2.15 4.887H122l-2.826-2.444-1.336-2.936 2.29-2.146z"/>
        <path fill="#79A2C9" stroke="#2B3D51" stroke-width=".75" d="M121.845 37.204v29.673l16.586 17.088-7.719 6.82-11.972-5.076-8.623-15.7z"/>
        <path fill="#EAF7FF" stroke="#2B3D51" stroke-width=".75" d="M145.927 90.784l-7.496-6.82-7.719 6.82 10.537 4.83z"/>
        <path fill="#F8E71C" stroke="#2B3D51" stroke-width=".75" d="M157.73 78.677l32.37 32.37-32.37 32.371-32.37-32.37z"/>
        <path fill="#EAF7FF" stroke="#2B3D51" stroke-linejoin="round" stroke-width=".75" d="M132.04 104.968l-7.23-9.72-11.729 7.363 11.827 9.733 14.542 7.679 7.517 5.168 6.675 1.682 4.968-.92 4.574-5.93h-5.314l-4.228-1.456 3.397-2.725.831-2.254-3.118 1.075-7.785 1.89-2.71-.711z"/>
        <path fill="#B5C8CF" stroke="#2B3D51" stroke-width=".75" d="M78.823 115.434l-9.222 16.3-29.087 19.838-21.768 28.177 5.786 12.56 25.002-12.56 26.19-15.28z"/>
        <path fill="#C9DCED" stroke="#2B3D51" stroke-width=".75" d="M78.304 72.357l-3.1 17.432 1.55 29.513-7.535 38.624 5.985 59.942h14.44l12.906-76.973 2.922-54.491L91.557 67.73z"/>
        <path fill="#8FB4D8" stroke="#2B3D51" stroke-width=".75" d="M121.845 39.945l1.859-5.96H122l-2.826-2.445-1.336-2.936-12.366 2.936-13.707 8.867-10.373 10.406-9.854 7.237-4.425 5.948-1.24 4.71 1.24 3.35 20.205 6.333 5.697.975 2.102-.975-.555-.856 4.08-31.026-4.08 31.026 18.41 25.263 11.936-7.539-11.936-23.201z"/>
        <path fill="#EAF7FF" stroke="#2B3D51" stroke-width=".75" d="M127.56 29.097h3.615l3.626-.65 3.6-2.662 1.918.532 1.512-.532v-7.664l.588-1.228v-4.368l-9.423 4.998-4.333 2.701z"/>
        <path fill="#2B3D51" d="M105.472 14.737l3.358-2.523 4.835-1.511 2.51-4.295 3.832-3.898L124.908 0h6.267l6.055 2.51 4.286 3.898 1.984 3.694.844 2.756-1.47 4.604-.58-3.88-2.72 3.065-5.585 1.723-3.251 1.795-1.853 3-.381 7.208h-1.69l-10.64-5.164-5.24-3.828-4.966-4.734z"/>
        <path fill="#3F5165" d="M75.204 217.868l-5.603 17.14H113.1l-2.83-3.423-10.752-5.684-9.874-8.033z"/>
        <path fill="#2B3D51" d="M18.75 179.568L.453 182.365l18.342 39.276 1.702-3.96.81-13.602 3.225-11.77z"/>
        <g transform="translate(129.083 103.542)">
            <rect width="19.512" height="5.253" x="161.726" y=".375" fill="#2B3D51" stroke="#2B3D51" stroke-width=".75" rx="2.627"/>
            <circle cx="19.887" cy="111.445" r="12.758" fill="#FFF" stroke="#2E3E4F" stroke-width="14.259"/>
            <path stroke="#2B3D51" stroke-linecap="round" stroke-linejoin="round" stroke-width="1.501" d="M163.227 5.629l-62.289 85.553 10.405 19.915-2.657 12.731-7.748 2.343-61.904-34.989-34.82 36.475 34.823-36.395 62.033-.13"/>
            <path fill="#C9DCED" stroke="#2E3E4F" stroke-width=".75" d="M43.888 56.328L40.8 48.703 80.923 31.8l9.847 21.738z"/>
            <path fill="#2E3E4F" stroke="#2B3D51" stroke-width=".75" d="M4.215 51.906h125.46L101.07 91.132H49.879l-20.266-9.98z"/>
        </g>
        <g>
            <path fill="#79A2C9" stroke="#2B3D51" stroke-width=".75" d="M375.871 218.357l-34.443-88.909 22.95-31.671v6.085l5.75 30.46 22.614 41.207-2.374 42.828z"/>
            <path fill="#8FB4D8" stroke="#2B3D51" stroke-width=".75" d="M336.484 218.357l-18.681-55.927-3.347-18.379 22.028-49.93 26.124-6.953 5.792 3.616-3.518 14.402-17.27 25.219-4.007 13.646 13.167 37.062-6.195 37.244z"/>
            <path fill="#C9DCED" stroke="#2B3D51" stroke-width=".75" d="M336.924 42.703l-6.138-7.9h-5.17l-3.458-1.639-3.544-5.081h-2.634l1.84-7.702 3.454-3.203 14.47 8.137 4.578 7.021 1.45 3.287z"/>
            <path fill="#2B3D51" d="M346.09 29.16l6.55-9.383-2.016-6.554-4.534-3.366-7.235-3.766-6.27-4.974h-2.672l-5.409 1.788-3.117 3.186-5.407 1.917-2.67 6.1 5.262 6.907 4.068 1.718 6.236 2.276 3.71 4.932 6.27 3.805 4.075-.701z"/>
            <path fill="#C9DCED" stroke="#2B3D51" stroke-width=".75" d="M324.784 88.355l-16.068 9.422-11.115 3.113-3.984 4.268-1.036 4.666 2.84 4.79 2.18 1.394 3.514-6.184 3.199-4.666 4.369-1.648 18.28-1.806v-9.22z"/>
            <path fill="#EAF7FF" stroke="#2B3D51" stroke-width=".75" d="M341.331 95.703l17.8-12.307-12.959-33.284 12.99 33.283-25.075 17.362-7.124.947-4.323-11.966 18.235-13.72-1.838-12.218-3.283-21.816 4.425-7.626 1.447-.612 12.045 8.238 8.655 8.128 7.215 11.63 2.641 3.773 8.61 8.778 1.847 4.83v5.5l-9.826 5.115-8.675 2.88-3.441.818z"/>
            <path fill="#2B3D51" d="M350.047 236.45h46.19l-5.67-18.181-14.737.115-13.172 9.532-8.427 3.89z"/>
            <path fill="#3F5165" d="M310.272 236.45h46.19l-6.07-18.159-13.892.185-13.617 9.44-8.427 3.89z"/>
        </g>
    </g>
</svg>
