<svg xmlns="http://www.w3.org/2000/svg" width="52" height="64" viewBox="0 0 52 64">
    <path fill="#00BFFF" fill-rule="nonzero" d="M43.432 33.99a14.525 14.525 0 0 1 6.916-12.187 14.868 14.868 0 0 0-11.714-6.333c-4.929-.517-9.707 2.95-12.219 2.95-2.56 0-6.427-2.899-10.59-2.813a15.601 15.601 0 0 0-13.13 8.007C-2.98 33.442 1.254 47.885 6.692 55.83c2.72 3.89 5.9 8.235 10.06 8.08 4.071-.168 5.592-2.595 10.506-2.595 4.869 0 6.295 2.596 10.54 2.498 4.369-.071 7.121-3.907 9.746-7.834A32.175 32.175 0 0 0 52 46.902a14.036 14.036 0 0 1-8.568-12.912zm-8.018-23.745A14.301 14.301 0 0 0 38.685 0a14.55 14.55 0 0 0-9.414 4.871 13.608 13.608 0 0 0-3.357 9.866 12.031 12.031 0 0 0 9.5-4.492z"/>
</svg>
