<svg xmlns="http://www.w3.org/2000/svg" width="190" height="256" viewBox="0 0 190 256">
    <g fill="none" fill-rule="evenodd">
        <path fill="#2B3D51" stroke="#2B3D51" d="M189.5 128.867v64.203c0 33.966-27.534 61.5-61.5 61.5H65.253V128.867H189.5z"/>
        <path fill="#2B3D51" d="M35.375 198.023l-13.846 7.692-13.867 3.198-7.576 4.778 55.14 12.797-2.423-23.79z"/>
        <path fill="#3F5165" d="M41.499 232.013l-10.985 10.012-12.796 6.251-6.312 6.37h56.59l-7.685-22.633z"/>
        <path fill="#BFD2D9" stroke="#3F5165" d="M49.133 125.976l5.446-10.359 23.504-7.38 22.533-2.98-17.565 20.72-20.356 28.129-12.769 47.574-14.55-3.657z"/>
        <path fill="#C9DCED" stroke="#3F5165" d="M145.857 112.841l-5.686 13.135-15.857 13.687-31.223 21.866-12.032 36.847-20.748 33.637H41.5l21.196-77.907 20.356-28.13 17.565-20.718 29.519 7.093z"/>
        <path fill="#79A2C9" stroke="#3F5165" d="M111.677 61.43l-11.061 10.404-28.075-9.488-1.022 3.175 32.466 16.386z"/>
        <path fill="#8FB4D8" stroke="#3F5165" d="M114.377 44.804l-10.619 35.534L71.52 65.521l-2.19 7.056 31.233 28.451h15.845l16.463-32.794-16.367 32.816-14.094-.016-1.665 4.147 29.573 7.143 21.157 1.052 5.379-14.668-11.605-43.395-9.808-16.244z"/>
        <path fill="#B5C8D9" stroke="#3F5165" d="M72.537 62.336l-2.86-1.015-1.749-5.075-1.788-2.29-8.454-5.621v10.348l13.806 7.145z"/>
        <path fill="#C9DCED" stroke="#3F5165" d="M71.567 65.655l-4.657-2.422-5.762-7.157-11.08-1.57-5.42-.55v1.866l2.922 1.274 3.94 5.852 11.939 4.257 5.88 5.407z"/>
        <path fill="#F8E71C" stroke="#3F5165" d="M53.668 39.914l-12.17 3.59L48.69 54.39c1.84 1.885 3.325 2.855 4.455 2.91 1.695.083 9.212-.478 10.454 4.13l4.06-.964v-1.338L53.667 39.914z"/>
        <path fill="#C9DCED" stroke="#2B3D51" d="M111.677 34.911h-2.858l-3.879-1.063-4.324-4.433-3.188-1 .865-4.043-1.229-5.949 2.079-6.668 7.806 5.296 9.512 6.282z"/>
        <path fill="#2B3D51" d="M142.55 34.796l-4.778-3.018-3.683-6.692-.729-8.472-2.331-5.629-4.047-5.895-6.781-3.838-4.905-.907-6.57 1.71-5.378 3.035-4 3.048-2.284 3.86-.793 2.75.793 3.675 2.283-4.502.87 2.693 3.13 2.68 4.15 1.371 4.18.793 1.414 1.337.815 2.29-.815 3.272-2.59 5.483-.885 4.192.885 4.219 1.176 1.97 5.978.735 15.705-4.242z"/>
    </g>
</svg>
