<svg xmlns="http://www.w3.org/2000/svg" width="340" height="251" viewBox="0 0 340 251">
    <g fill="none" fill-rule="evenodd">
        <path fill="#E1F1FC" d="M80 226h260v24H80zM80 94l130.5-69.675L340 94v24H80z"/>
        <path fill="#EAF7FF" d="M105 214h210v12H105zM105 118h210v12H105z"/>
        <path fill="#E1F1FC" d="M117.5 130v84h-12v-84zM315.5 130v84h-12v-84zM216.5 130v84h-12v-84zM266.5 130v84h-12v-84zM164.5 130v84h-12v-84z"/>
        <path fill="#C9DCED" stroke="#2B3D51" d="M113.748 78.31l12.064 6.029L129 87.53l-1.858 2.42-11.016 3.418-12.76-3.61L93 90.836l-2.62-11.13 11.494 1.832z"/>
        <path stroke="#2B3D51" stroke-linecap="round" d="M.5 250.5h339"/>
        <path fill="#79A2C9" stroke="#2B3D51" d="M50.199 95.378L62 151.058v79.862H46.301L35 169.426z"/>
        <path fill="#8FB4D8" stroke="#2B3D51" d="M11.498 90.357l9.407 62.066L8 230.92h14.363l27.638-70.281L51 90.357z"/>
        <path fill="#EAF7FF" stroke="#2B3D51" d="M46.255 33.377L57.542 71.8l32.837 7.908L93 90.837l-52.37 4.565-10.015-31.013 10.862 33.638-10.862 1.367L1 90.837l18.321-44.162 18.327-16.559 8.607 3.26z"/>
        <path fill="#2B3D51" stroke="#2B3D51" d="M56.961 15.203l6.93-6.053L66 1H37.555L30 7.144l2.574 12.176 4.98 4.66 4.254 1.116z"/>
        <path fill="#C9DCED" stroke="#2B3D51" d="M39.025 24.722L38 31.272l7.702 2.86.898-5.758 3.447-.526 6.146-4.774 2.807-.68-1.156-5.578v-2.764h-6.439l-5.703 4.021H38l2.357 5z"/>
        <path fill="#2B3D51" d="M38 251h51l-4.66-4.634-23.345-15.387-15.619-.06z"/>
        <path fill="#3F5165" d="M0 251h51l-6.624-6.55-22.363-13.471-14.637-.06z"/>
        <path fill="#79A2C9" stroke="#2B3D51" d="M165 48.189l-6.998 21.679L144 74.105l6.156 8.22h9.645z"/>
        <path fill="#B5C8CF" stroke="#2B3D51" d="M156 227.908h14.607L182 206.805l-6.621-20.062L156 188.855z"/>
        <path fill="#C9DCED" stroke="#2B3D51" d="M163.212 91.361L156 154.3l32.58 73.609H205v-26.686l-16.42-38.112 3.28-69.237-28.648-2.512z"/>
        <path fill="#F8E71C" stroke="#2B3D51" d="M152 140.558l68 6.536-5.235 47.681L147 188.414z"/>
        <path fill="#EAF7FF" stroke="#2B3D51" d="M205 101.225l-11.702 26.083v4.333l1.063 5.184-1.063 3.733-9.18-.415-4.08-3.023.43-5.153-1.468-.671.473-4.702 9.347-11.85 1.453-17.358z"/>
        <path fill="#8FB4D8" stroke="#2B3D51" d="M165.12 38.435v9.514L158 92.936l21.459 9.099h10.483v-1.926l-6.582-2.546-9.39-43.405 9.358 43.413 11.737 4.4L211 103.41l-6.468-37.661L184.5 38.435l-5.041 1.945-7.591-6.247z"/>
        <path fill="#EAF7FF" stroke="#2B3D51" d="M143.607 74.293l-16.705 4.76-6.904-.674L110 82.704l3.14 1.566 5.86-1.566 8.66 3.637 15.838-3.637 6.502.156zM105 90.262l4.284-3.92 8.674 4.01.042 2.294-2.313.723zM164.516 38.149l-2.704-9.096-5.752-2.894-3.234-5.34L151 19.392l6.288-7.348 8.453 6.557 4.024-1.312L172 19.392l-2.235 6.767 1.208 7.946z"/>
        <path fill="#3F5165" d="M156.733 11.773L156 6.542l7.037-2.53h7.702l6.635 3.04 3.39 3.472 1.205 4.026-1.206 5.305-3.39 4.153-4.757 2.285L188 31.553l-.735 4.31-3.334 3.78-5.226 2.522-7.76-8.113-1.598-8.06 1.222-4.641.924-2.099-1.34-1.3-3.947 1.025z"/>
        <path fill="#2B3D51" d="M155.706 228.032l15.095-.124 8.656 22.592h-53.26l4.624-6.188 15.615-7.881z"/>
        <path fill="#3F5165" d="M188.133 228.132H205l7.446 22.368h-52.119l3.902-5.478 15.221-8.62z"/>
        <path stroke="#2B3D51" stroke-linecap="round" d="M194 138.55l3 6.024M180 134.534l-7 8.032"/>
    </g>
</svg>
