<svg xmlns="http://www.w3.org/2000/svg" width="211" height="260" viewBox="0 0 211 260">
    <g fill="none" fill-rule="evenodd">
        <g transform="translate(0 1)">
            <path fill="#E1F1FC" d="M136.868 195.419c14.584 17.969 40.84 20.874 58.646 6.488 17.806-14.386 20.417-40.615 5.833-58.584l-64.48 52.096zM161.86 30.198c-19.166 16.045-21.528 44.716-5.278 64.04l34.103-28.551-28.826-35.489z"/>
            <ellipse cx="41.076" cy="134.995" fill="#E1F1FC" rx="30.994" ry="30.924"/>
            <path fill="#F8E71C" stroke="#2B3D51" stroke-linejoin="round" d="M.561 32.908L61.641 0l5.097 68.85z"/>
        </g>
        <path fill="#79A2C9" stroke="#2B3D51" d="M146.206 136.942L170 194.764v11.053l-5.588 5.855-53.944 20.754-6.62-15.794 18.369-15.586 19.95-4.54-3.432-15.374z"/>
        <path fill="#8FB4D8" stroke="#2B3D51" d="M71.718 187.134l3.37-17.18 30.123 8.59 10.359 8.59-3.044-21.835v-14.304l33.68-15.612-9.55 79.612-5.646 3.587h-4.275z"/>
        <path fill="#EAF7FF" stroke="#2B3D51" d="M121.877 60.475l-1.168 23.744-9.386 16.987-5.752 4.172-33.853 27.217 4.919 10.249 32.268-11.15.057 21.203 10.212-2.744 14.985-8.846 12.047-4.365 8.332-2.748 5.264-7.49-2.126-5.084-14.08-14.934-2.933-8.845V87.336l-7.749-31.207z"/>
        <path fill="#C9DCED" stroke="#2B3D51" d="M110.43 94.965l.893 6.24c.73 1.014 1.801 1.52 3.213 1.52 2.118 0 5.496-2.632 6.173-3.88l-2.06-5.888-8.219 2.008z"/>
        <path fill="#C9DCED" stroke="#2B3D51" d="M116.171 79.298l7.541 3.409c-.203 1.19-.951 2.14-2.244 2.85.81 4.026-.398 6.797-3.62 8.313-3.223 1.517-6.668 1.887-10.335 1.11l-6.172-4.12 5.78-8.535 9.05-3.027z"/>
        <path fill="#2B3D51" stroke="#2E3E4F" d="M114.68 65.063l-6.497 4.268c.56 2.127-.238 3.783-2.397 4.967-3.239 1.776-12.05 6.656-11.734 12.36.314 5.704 4.721 11.635 9.906 11.635 3.457 0 5.592-.623 6.407-1.869.264-.978-.034-1.877-.893-2.695-1.29-1.229-5.11-.688-5.11-3.068s2.89-1.636 4.446-2.38c8.514-4.062 10.47-11.801 5.871-23.218z"/>
        <path fill="#C9DCED" stroke="#2B3D51" d="M76.637 142.844l-34.868 11.262v-2.651l4.968-2.287v-2.138l-16.203-4.186 1.857-3.512 8.169-2.743 5.01.976 8.015 3.363h2.546l15.587-8.333zM121.877 60.475l.701-18.524-1.164-2.049h-3.65l-8.497 2.049-12.86-7.937 2.944-.86 3.541.86 6.375 3.136h2.662l1.614-1.394-4.05-.977h-3.31l-1.916-1.624 11.303-.72 9.7 1.579 1.898 3.136 5.746 18.98z"/>
        <path fill="#3F5165" d="M71.718 187.134l-12.501 12.21-2.356 4.028-5.334 2.532 8.329-40.71 15.232 4.76z"/>
        <path fill="#2B3D51" stroke="#2B3D51" d="M110.468 232.426l-5.25 15.236-1.987 8.83-2.718 3.508-12.8-40.072 16.136-3.296z"/>
    </g>
</svg>
