<svg xmlns="http://www.w3.org/2000/svg" width="120" height="95" viewBox="0 0 120 95">
    <g fill="none" fill-rule="evenodd">
        <path d="M-1-1h120v96H-1z"/>
        <path fill="#BAD0D9" stroke="#1C202B" stroke-linejoin="round" d="M12.894 64.825l27.382-13.798c3.756-1.261 7.51-1.261 11.26 0 3.751 1.261 11.318 4.27 22.702 9.025l5.543 1.45c2.844.851 4.266 2.766 4.266 5.745s-2.074 4.787-6.221 5.426L49.52 69.302l28.305 3.37c2.7-.654 4.622-1.608 5.765-2.86l24.414-8.31c6.463-1.857 10.092-.314 10.889 4.63-.055 2.518-1.07 4.37-3.041 5.558-1.973 1.188-14.996 7.48-39.07 18.877-5.938 2.342-10.03 3.514-12.274 3.514-2.244 0-5.987-1.172-11.228-3.514l-16.748-8.878c-.817-.448-1.763-.672-2.838-.672-1.076 0-2.217.224-3.426.672l-6.695 3.146-10.68-20.01z"/>
        <g stroke="#1C202B">
            <path fill="#FFF" stroke-linejoin="round" d="M58.116 16.125h56v28h-56z"/>
            <path fill="#A7CCF6" d="M105.345 20.625H66.767c-.22 2.317-1.955 4.17-4.15 4.417V35.07c2.242.251 3.992 2.174 4.16 4.554h38.556c.166-2.428 1.988-4.367 4.282-4.566l.001-10.005c-2.253-.19-4.047-2.068-4.271-4.428z"/>
            <g stroke-linecap="round">
                <path d="M83.28 25.513h6.428"/>
                <path stroke-linejoin="round" d="M83.28 25.513c2.803-.192 4.204.766 4.204 2.873 0 1.757-1.401 2.635-4.204 2.635l4.485 4.933"/>
                <path d="M83.632 28.153h6.43"/>
            </g>
        </g>
        <g transform="translate(.116 .125)">
            <circle cx="22" cy="22" r="22" fill="#2B3D51"/>
            <text fill="#FFF" font-family="Rubik-Regular, Rubik" font-size="24">
                <tspan x="13" y="30">%</tspan>
            </text>
        </g>
    </g>
</svg>
